<mxfile host="app.diagrams.net" modified="2024-01-30T20:40:07.539Z" agent="Mozilla/5.0 (Macintosh; Intel Mac OS X 10.15; rv:122.0) Gecko/20100101 Firefox/122.0" etag="dfG1Yvuruzb2y-F--rZW" version="23.0.2" type="github">
  <diagram name="Page-1" id="Lgb-XU-En_jDl9FXPifR">
    <mxGraphModel dx="1000" dy="652" grid="1" gridSize="10" guides="1" tooltips="1" connect="1" arrows="1" fold="1" page="1" pageScale="1" pageWidth="827" pageHeight="583" math="0" shadow="0">
      <root>
        <mxCell id="0" />
        <mxCell id="1" parent="0" />
        <mxCell id="4BjPGzyNBSC3dJ-_PBJF-1" value="Edge Resources" style="swimlane;whiteSpace=wrap;html=1;" vertex="1" parent="1">
          <mxGeometry x="40" y="160" width="200" height="200" as="geometry" />
        </mxCell>
        <mxCell id="4BjPGzyNBSC3dJ-_PBJF-17" style="edgeStyle=orthogonalEdgeStyle;rounded=0;orthogonalLoop=1;jettySize=auto;html=1;exitX=1;exitY=0.5;exitDx=0;exitDy=0;" edge="1" parent="4BjPGzyNBSC3dJ-_PBJF-1" source="4BjPGzyNBSC3dJ-_PBJF-3" target="4BjPGzyNBSC3dJ-_PBJF-16">
          <mxGeometry relative="1" as="geometry" />
        </mxCell>
        <mxCell id="4BjPGzyNBSC3dJ-_PBJF-3" value="Cloudflare CDN" style="editableCssRules=.*;html=1;shape=image;verticalLabelPosition=bottom;labelBackgroundColor=#ffffff;verticalAlign=top;aspect=fixed;imageAspect=0;image=data:image/svg+xml,PHN2ZyB4bWxucz0iaHR0cDovL3d3dy53My5vcmcvMjAwMC9zdmciIHhtbG5zOnY9Imh0dHBzOi8vdmVjdGEuaW8vbmFubyIgd2lkdGg9IjIwIiBoZWlnaHQ9IjIwIiB2aWV3Qm94PSIwIDAgMjAgMjAiPiYjeGE7CTxzdHlsZSB0eXBlPSJ0ZXh0L2NzcyI+JiN4YTsJLnN0MHtmaWxsOiM0Mjg1ZjQ7fSYjeGE7CS5zdDF7ZmlsbDojNjY5ZGY2O30mI3hhOwkuc3Qye2ZpbGw6I2FlY2JmYTt9JiN4YTsJPC9zdHlsZT4mI3hhOwk8cGF0aCBjbGFzcz0ic3QxIiBkPSJNMTMuMTMgNS42M1YzLjIxTDEwIDB2Mi40MXptMy43NSA3LjVMMjAgMTBoLTIuNWwtMy4xMiAzLjEzem0tMTMuNzUgMEwwIDEwaDIuNWwzLjEzIDMuMTN6bTEwIDEuMjV2Mi40MUwxMCAyMHYtMi40MXoiIGZpbGwtcnVsZT0iZXZlbm9kZCIvPiYjeGE7CTxwYXRoIGNsYXNzPSJzdDIiIGQ9Ik02Ljg4IDUuNjNMMTAgMi40MVYwTDYuODggMy4yMXpNMTcuNSAxMEgyMGwtMy4xMi0zLjEyaC0yLjV6bS0xNSAwSDBsMy4xMy0zLjEyaDIuNXptNC4zOCA0LjM4TDEwIDE3LjU5VjIwbC0zLjEyLTMuMjF6bTAtNy41aDYuMjV2Ni4yNUg2Ljg4eiIgZmlsbC1ydWxlPSJldmVub2RkIi8+JiN4YTsJPHBhdGggY2xhc3M9InN0MSIgZD0iTTYuODggMTMuMTNsNi4yNS02LjI1djYuMjV6IiBmaWxsLXJ1bGU9ImV2ZW5vZGQiLz4mI3hhOwk8cGF0aCBjbGFzcz0ic3QwIiBkPSJNMTAgMTBsMy4xMy0zLjEydjYuMjV6IiBmaWxsLXJ1bGU9ImV2ZW5vZGQiLz4mI3hhOzwvc3ZnPg==;" vertex="1" parent="4BjPGzyNBSC3dJ-_PBJF-1">
          <mxGeometry x="80" y="40" width="40" height="40" as="geometry" />
        </mxCell>
        <mxCell id="4BjPGzyNBSC3dJ-_PBJF-16" value="&lt;div&gt;External Proxy&lt;br&gt;&lt;/div&gt;" style="pointerEvents=1;shadow=0;dashed=0;html=1;strokeColor=none;fillColor=#4495D1;labelPosition=center;verticalLabelPosition=bottom;verticalAlign=top;align=center;outlineConnect=0;shape=mxgraph.veeam.2d.proxy;" vertex="1" parent="4BjPGzyNBSC3dJ-_PBJF-1">
          <mxGeometry x="120" y="120" width="40" height="40" as="geometry" />
        </mxCell>
        <mxCell id="4BjPGzyNBSC3dJ-_PBJF-13" style="edgeStyle=orthogonalEdgeStyle;rounded=0;orthogonalLoop=1;jettySize=auto;html=1;entryX=0.5;entryY=0;entryDx=0;entryDy=0;" edge="1" parent="1" source="4BjPGzyNBSC3dJ-_PBJF-12" target="4BjPGzyNBSC3dJ-_PBJF-1">
          <mxGeometry relative="1" as="geometry" />
        </mxCell>
        <mxCell id="4BjPGzyNBSC3dJ-_PBJF-12" value="" style="sketch=0;pointerEvents=1;shadow=0;dashed=0;html=1;strokeColor=none;fillColor=#505050;labelPosition=center;verticalLabelPosition=bottom;outlineConnect=0;verticalAlign=top;align=center;shape=mxgraph.office.clouds.online_user;" vertex="1" parent="1">
          <mxGeometry x="94" y="20" width="93" height="74" as="geometry" />
        </mxCell>
        <mxCell id="4BjPGzyNBSC3dJ-_PBJF-18" value="&lt;div&gt;On-premises Resources&lt;/div&gt;" style="swimlane;horizontal=0;whiteSpace=wrap;html=1;" vertex="1" parent="1">
          <mxGeometry x="380" y="160" width="400" height="360" as="geometry" />
        </mxCell>
        <mxCell id="4BjPGzyNBSC3dJ-_PBJF-19" value="&lt;div&gt;Internal Proxy&lt;/div&gt;&lt;div&gt;&lt;br&gt;&lt;/div&gt;" style="pointerEvents=1;shadow=0;dashed=0;html=1;strokeColor=none;fillColor=#4495D1;labelPosition=center;verticalLabelPosition=bottom;verticalAlign=top;align=center;outlineConnect=0;shape=mxgraph.veeam.2d.proxy;" vertex="1" parent="4BjPGzyNBSC3dJ-_PBJF-18">
          <mxGeometry x="60" y="120" width="40" height="40" as="geometry" />
        </mxCell>
        <mxCell id="4BjPGzyNBSC3dJ-_PBJF-20" style="edgeStyle=orthogonalEdgeStyle;rounded=0;orthogonalLoop=1;jettySize=auto;html=1;" edge="1" parent="1" source="4BjPGzyNBSC3dJ-_PBJF-16" target="4BjPGzyNBSC3dJ-_PBJF-19">
          <mxGeometry relative="1" as="geometry" />
        </mxCell>
        <mxCell id="4BjPGzyNBSC3dJ-_PBJF-21" value="External Resources" style="swimlane;whiteSpace=wrap;html=1;" vertex="1" parent="1">
          <mxGeometry x="41" y="400" width="200" height="120" as="geometry" />
        </mxCell>
        <mxCell id="4BjPGzyNBSC3dJ-_PBJF-22" value="Static Assets" style="verticalLabelPosition=bottom;html=1;verticalAlign=top;align=center;strokeColor=none;fillColor=#00BEF2;shape=mxgraph.azure.storage_blob;" vertex="1" parent="4BjPGzyNBSC3dJ-_PBJF-21">
          <mxGeometry x="74" y="50" width="50" height="45" as="geometry" />
        </mxCell>
        <mxCell id="4BjPGzyNBSC3dJ-_PBJF-23" style="edgeStyle=orthogonalEdgeStyle;rounded=0;orthogonalLoop=1;jettySize=auto;html=1;entryX=0;entryY=0.5;entryDx=0;entryDy=0;entryPerimeter=0;exitX=0;exitY=0.5;exitDx=0;exitDy=0;" edge="1" parent="1" source="4BjPGzyNBSC3dJ-_PBJF-3" target="4BjPGzyNBSC3dJ-_PBJF-22">
          <mxGeometry relative="1" as="geometry">
            <mxPoint x="100" y="220" as="sourcePoint" />
            <mxPoint x="95" y="472.5" as="targetPoint" />
            <Array as="points">
              <mxPoint x="80" y="220" />
              <mxPoint x="80" y="473" />
            </Array>
          </mxGeometry>
        </mxCell>
      </root>
    </mxGraphModel>
  </diagram>
</mxfile>
